<svg width="20" height="20" viewBox="0 0 20 20" fill="none" xmlns="http://www.w3.org/2000/svg">
<path d="M4.49979 4.44141V2.94141C4.49979 2.38912 4.9475 1.94141 5.49979 1.94141H14.9998C15.5521 1.94141 15.9998 2.38912 15.9998 2.94141V6.94141M2.00057 16.0589L2.00064 8.45531C2.00065 7.69371 2.00036 6.60893 2.00012 5.82347C1.99995 5.27104 2.44773 4.82373 3.00016 4.82373H7.76534L10.0695 7.28509H16.9998C17.5521 7.28509 17.9998 7.73283 17.9998 8.28512L17.9995 16.059C17.9995 17.1636 17.1041 18.059 15.9995 18.059L4.00056 18.0589C2.89599 18.0589 2.00056 17.1635 2.00057 16.0589Z" stroke="#434E6D" stroke-width="2" stroke-linecap="round" stroke-linejoin="round"/>
</svg>
